<svg width="507" height="552" xmlns="http://www.w3.org/2000/svg">
     <defs>
        <mask id="Mask">
            <path fill="white" opacity="1" d="m435.279,113.284l-188.088,-108.592c-10.835,-6.257 -28.567,-6.257 -39.402,0l-188.088,108.592c-10.836,6.255 -19.701,21.612 -19.701,34.124l0,217.185c0.843,14.571 8.286,26.639 19.701,34.123l188.088,108.592c10.835,6.257 28.567,6.257 39.402,0l188.088,-108.592c12.248,-8.146 19.219,-20.408 19.701,-34.123l0,-217.185c-0.44,-13.165 -8.323,-26.443 -19.701,-34.124z"/>
            <path d="m75.83,256.001c-0.891,-148.089 197.459,-213.479 282.996,-75.878l-65.635,37.98c-39.622,-65.534 -138.001,-42.101 -141.532,37.897c1.06,73.729 97.754,107.978 141.536,37.893l65.635,37.979c-75.382,130.863 -279.198,83.781 -283,-75.871z"/>
        </mask>
    </defs>
    <rect width="507" height="552" mask="url(#Mask)" />
</svg>