<svg width="289.598" height="293.201" xmlns="http://www.w3.org/2000/svg" xmlns:xlink="http://www.w3.org/1999/xlink">
 <metadata id="metadata41">image/svg+xml</metadata>
 <defs>
  <defs>
   <rect id="SVGID_1_" y="-151.084" x="-275.78601" height="595.28003" width="841.89001"/>
  </defs>
  <clipPath id="SVGID_2_">
   <use xlink:href="#SVGID_1_" height="293.20099" width="289.59799" y="0" x="0" id="use9"/>
  </clipPath>
 </defs>
 <g>
  <title>background</title>
  <rect fill="none" id="canvas_background" height="602" width="802" y="-1" x="-1"/>
 </g>
 <g>
  <title>Layer 1</title>
  <path fill="#000000" id="path35" clip-path="url(#SVGID_2_)" d="m235.298,153.699c0,12.001 -6.323,17.882 -18.1,18.09l0,0.01l-144.799,0l0,-0.01c-11.777,-0.208 -18.1,-6.089 -18.1,-18.09c0,-12.001 6.323,-17.882 18.1,-18.09l0,-0.01l144.799,0l0,0.01c11.777,0.208 18.1,6.089 18.1,18.09m-18.1,27.159l0,-0.01l-144.799,0l0,0.01c-11.777,0.208 -18.1,6.09 -18.1,18.091c0,12.001 6.323,17.882 18.1,18.09l0,0.01l144.799,0l0,-0.01c11.776,-0.208 18.1,-6.089 18.1,-18.09c0,-12.001 -6.323,-17.883 -18.1,-18.091m45.25,-99.538l0,-0.01c-11.777,0.208 -18.101,6.089 -18.101,18.09l0,99.549c0,12.001 6.323,17.882 18.101,18.09l0,-0.021c17.665,-0.623 27.149,-18.266 27.149,-54.27l0,-45.248c0.001,-24.002 -9.484,-35.764 -27.149,-36.18m-235.298,-0.01l0,0.01c-17.666,0.416 -27.15,12.177 -27.15,36.18l0,45.249c0,36.004 9.484,53.646 27.15,54.27l0,0.021c11.777,-0.208 18.099,-6.089 18.099,-18.09l0,-99.55c0,-12.001 -6.322,-17.882 -18.099,-18.09m235.298,-9.06c0,-30.003 -15.808,-44.705 -45.25,-45.225l0,-0.025l-144.799,0l0,0.025c-29.442,0.52 -45.249,15.222 -45.249,45.225l0,0.015c17.665,0.312 27.149,9.133 27.149,27.135c0,18.001 9.485,26.823 27.15,27.135l0,0.015l126.699,0l0,-0.015c17.666,-0.312 27.15,-9.134 27.15,-27.135c0,-18.002 9.484,-26.823 27.15,-27.135l0,-0.015z"/>
 </g>
</svg>