<?xml version="1.0" encoding="utf-8"?>
<!-- Generator: Adobe Illustrator 22.1.0, SVG Export Plug-In . SVG Version: 6.00 Build 0)  -->
<svg version="1.1" id="Layer_1" xmlns="http://www.w3.org/2000/svg" xmlns:xlink="http://www.w3.org/1999/xlink" x="0px" y="0px"
	 viewBox="0 0 455 512" style="enable-background:new 0 0 455 512;" xml:space="preserve">
<path d="M435.3,113.3L247.2,4.7c-10.8-6.3-28.6-6.3-39.4,0L19.7,113.3C8.9,119.5,0,134.9,0,147.4v217.2c0.7,13.9,8,26.6,19.7,34.1
	l188.1,108.6c10.8,6.3,28.6,6.3,39.4,0l188.1-108.6c12.3-8.2,19.2-20.4,19.7-34.1V147.4C454.5,134.2,446.7,121,435.3,113.3z
	 M78.2,255.9c-0.9-148.1,197.5-213.5,283-75.9l-65.6,38c-39.6-65.5-138-42.1-141.5,37.9c1.1,73.7,97.8,108,141.5,37.9l65.6,38
	C285.8,462.6,82,415.5,78.2,255.9z M375.8,265.2h-16.6v16.6h-17.8v-16.6h-16.6v-17.8h16.6v-16.6h17.8v16.6h16.6V265.2z M439,265.2
	h-16.6v16.6h-17.8v-16.6H388v-17.8h16.6v-16.6h17.8v16.6H439V265.2z"/>
</svg>
