<svg id="Layer_1" data-name="Layer 1" xmlns="http://www.w3.org/2000/svg" viewBox="0 0 454.98 512">
	<polygon points="335.75 261.86 349.89 261.86 351.73 244.53 337.55 244.53 335.75 261.86"/>
	<path d="M435.28,114.48,247.19,5.88c-10.83-6.25-28.57-6.25-39.4,0L19.7,114.48C8.86,120.73,0,136.09,0,148.6V365.78a43.14,43.14,0,0,0,19.7,34.13L207.79,508.5c10.83,6.26,28.57,6.26,39.4,0L435.28,399.91c12.25-8.15,19.22-20.41,19.7-34.13V148.6C454.54,135.43,446.66,122.16,435.28,114.48ZM78.16,257.06c-.89-148.09,197.46-213.48,283-75.88l-65.63,38c-39.62-65.54-138-42.1-141.53,37.89,1.06,73.73,97.75,108,141.53,37.9l65.64,38C285.77,463.79,82,416.71,78.16,257.06Zm298.67-11.34H364.32l-1.79,17.33h10.8v12.08H361.28l-2.22,21.42H346.33l2.28-21.42H334.5l-2.21,21.42H319.55l2.28-21.42h-11V263.05h12.28L325,245.72H314.33V233.65h11.91l2.09-19.6h12.5l-2,19.6H353l2.08-19.6h12.5l-2,19.6h11.26Z"/>
</svg>