<?xml version="1.0" encoding="utf-8"?>
<svg version="1.1" xmlns="http://www.w3.org/2000/svg" xmlns:xlink="http://www.w3.org/1999/xlink" x="0px" y="0px"
	 viewBox="0 -20 170.8 170.8" xml:space="preserve">
<g id="Layer_3">
	<polygon points="83.1,26.7 112.9,40.4 86,54.2 55,38.7 	"/>
	<polygon points="52.2,41.6 83.4,56.6 63.9,64.8 52.2,59.2 	"/>
	<polygon points="115.8,43.3 89.2,56.6 114.4,68.1 115.8,67.4 	"/>
	<polygon points="33.8,54.2 60.1,66.3 52.2,69.6 52.2,73.8 36.7,81.7 5.2,66.2 	"/>
	<polygon points="2.9,69.1 35,84.5 35,108.6 2.9,91.4 	"/>
	<polygon points="38.4,84.5 52.2,77.4 52.2,97.7 56.2,100 39,108.6 	"/>
	<polygon points="55,73.1 87.1,88.6 87.1,113.2 55,96 	"/>
	<polygon points="57.3,70.8 86,58.8 115.8,72.5 88.3,85.7 	"/>
	<polygon points="90.6,88.6 118.1,74.8 118.7,99.5 91.1,112.6 	"/>
	<polygon points="121.5,79.4 135.9,86.3 135.9,110.3 119.6,101.6 121.5,100.6 	"/>
	<polygon points="119.1,62.6 134.7,55.9 164.5,69.6 137.6,83.4 121.5,75.4 121.5,71.4 117.9,69.7 119.2,69.1 	"/>
	<polygon points="167.4,71.9 139.9,86.3 139.9,110.3 167.4,96.6 	"/>
</g>
</svg>
