<svg width="600" height="600" xmlns="http://www.w3.org/2000/svg">
 <!-- Created with Method Draw - http://github.com/duopixel/Method-Draw/ -->

 <g>
  <title>background</title>
  <g display="none" overflow="visible" y="0" x="0" height="100%" width="100%" id="canvasGrid">
  </g>
 </g>
 <g>
  <title>Layer 1</title>
  <g stroke="#FFF" id="svg_30">
   <path stroke="#FFF" id="svg_4" d="m353.91769,339.22051l0,-97.68526l125.60228,59.81326l0,105.67149l-125.60228,-67.79254" fill="#FFF"/>
   <path stroke="#FFF" id="svg_5" d="m363.89004,331.25514l0,-77.76489l111.64725,53.8375l0,83.75805l-111.64725,-59.82718" fill="#000"/>
   <path stroke="#FFF" id="svg_6" d="m353.91769,241.53177l119.63,-51.84442l121.62308,57.82018l-109.67156,57.82366l-131.585,-63.79942"  fill="#FFF"/>
   <path stroke="#FFF" id="svg_7" d="m373.85196,243.52485l97.70613,-41.87902l103.67145,47.86174l-93.70605,47.84783l-107.67152,-53.83054" fill="#000"/>
   <path stroke="#FFF" id="svg_8" d="m477.53733,303.33811l1.98264,103.67841l117.64736,-57.80975l-2.00004,-101.67141l-117.63692,55.8271" fill="#FFF"/>
   <path stroke="#FFF" id="svg_9" d="m489.49581,307.32427l0,83.74065l95.70609,-47.84435l0,-85.74069l-95.70609,49.84439" fill="#000"/>
   <path stroke="#FFF" id="svg_10" d="m174.48138,237.53866l0,-97.69569l125.60228,59.82022l0,105.67149l-125.60228,-67.79254"  fill="#FFF"/>
   <path stroke="#FFF" id="svg_11" d="m184.44678,229.56634l0,-77.75794l111.64725,53.83402l0,85.74069l-111.64725,-61.82026" fill="#000"/>
   <path stroke="#FFF" id="svg_12" d="m174.48138,139.84297l119.60913,-49.84439l121.63004,55.8271l-109.65417,57.82366l-131.585,-63.80638" fill="#FFF"/>
   <path stroke="#FFF" id="svg_13" d="m194.40174,141.83952l97.70613,-41.86859l103.68189,47.84783l-93.71301,47.85131l-107.675,-53.82707" fill="#000"/>
   <path stroke="#FFF" id="svg_14" d="m298.08711,201.65279l1.99308,103.67841l117.63692,-57.82366l-2.01743,-101.67837l-117.63344,55.82362" fill="#FFF"/>
   <path stroke="#FFF" id="svg_15" d="m310.05254,205.64242l0,83.74065l95.70261,-47.85131l0,-83.74065l-95.70261,47.84783" fill="#000"/>
   <path stroke="#FFF" id="svg_16" d="m3,333.24475l0,-97.69569l123.61964,59.80978l1.99308,105.68888l-125.61272,-67.80297" fill="#FFF"/>
   <path stroke="#FFF" id="svg_17" d="m12.96888,325.27243l0,-77.76837l111.65421,53.8375l0,83.75805l-111.65421,-59.82718" fill="#000"/>
   <path stroke="#FFF" id="svg_18" d="m3,235.54905l119.62652,-51.83746l121.63004,57.82018l-111.65421,57.82714l-129.60236,-63.81333"  fill="#FFF"/>
   <path stroke="#FFF" id="svg_19" d="m20.94815,237.53866l99.68877,-41.86859l103.68189,47.86174l-93.71649,47.84783l-109.65417,-53.84446" fill="#000"/>
   <path stroke="#FFF" id="svg_20" d="m126.61964,297.3554l1.99308,103.68884l117.63692,-57.82366l-1.99656,-101.68881l-117.63692,55.8271" fill="#FFF"/>
   <path stroke="#FFF" id="svg_21" d="m136.58504,301.34156l2.00004,83.75109l95.70261,-47.86174l-1.99308,-85.73373l-95.6887,49.84439" fill="#000"/>
   <path stroke="#FFF" id="svg_22" d="m184.44678,347.19978l0,-97.69221l123.60921,59.81326l1.99656,107.65413l-125.60228,-69.77518" fill="#FFF"/>
   <path stroke="#FFF" id="svg_23" d="m194.40174,341.22402l0,-79.75797l111.66464,53.8375l0,85.74069l-111.66812,-59.81674" fill="#000"/>
   <path stroke="#FFF" id="svg_24" d="m184.44678,249.50757l119.61957,-49.84439l121.63004,55.82015l-111.65421,57.82366l-129.5954,-63.79942" fill="#FFF"/>
   <path stroke="#FFF" id="svg_25" d="m202.3845,253.49025l99.68877,-41.86859l103.68189,47.85131l-95.70261,45.85823l-107.66805,-51.84094" fill="#000"/>
   <path stroke="#FFF" id="svg_26" d="m308.05598,311.31043l1.99656,105.67149l115.64384,-59.81326l0,-101.68533l-117.63692,55.8271" fill="#FFF"/>
   <path stroke="#FFF" id="svg_27" d="m318.03182,315.30355l1.98264,83.73718l95.70957,-45.85823l-1.99308,-85.73373l-95.69913,47.85478" fill="#000"/>
  </g>
 </g>
</svg>