<?xml version="1.0" encoding="utf-8"?>
<!-- Generator: Adobe Illustrator 22.1.0, SVG Export Plug-In . SVG Version: 6.00 Build 0)  -->
<svg version="1.1" id="Layer_1" xmlns="http://www.w3.org/2000/svg" xmlns:xlink="http://www.w3.org/1999/xlink" x="0px" y="0px"
	 viewBox="0 0 24 18" style="enable-background:new 0 0 24 18;" xml:space="preserve">
<style type="text/css">
	.st0{fill:#F5F5F5;}
	.st1{fill:#EA4335;}
</style>
<title>email_active</title>
<g id="Layer_2_1_">
	<rect x="2" class="st0" width="20" height="18"/>
</g>
<g id="Layer_1_1_">
	<path class="st1" d="M24,1.5v15c0,0.8-0.6,1.5-1.4,1.5c0,0,0,0-0.1,0H21V4.4l-9,6.5L3,4.4V18H1.5C0.7,18,0,17.4,0,16.6
		c0,0,0,0,0-0.1v-15c0-0.4,0.1-0.8,0.4-1.1C0.7,0.1,1.1,0,1.5,0H2l10,7.3L22,0h0.5c0.4,0,0.8,0.1,1.1,0.4C23.9,0.7,24,1.1,24,1.5z"
		/>
</g>
</svg>
