<?xml version="1.0" encoding="utf-8"?>
<!-- Generator: Adobe Illustrator 22.1.0, SVG Export Plug-In . SVG Version: 6.00 Build 0)  -->
<svg version="1.1" id="Layer_1" xmlns="http://www.w3.org/2000/svg" xmlns:xlink="http://www.w3.org/1999/xlink" x="0px" y="0px"
	 viewBox="0 0 24 24" style="enable-background:new 0 0 24 24;" xml:space="preserve">
<style type="text/css">
	.st0{fill:#F5F5F5;}
	.st1{fill:#181717;}
</style>
<title>github_active</title>
<g id="Layer_2_1_">
	<circle class="st0" cx="12" cy="12.2" r="11.6"/>
</g>
<g id="Layer_1_1_">
	<path class="st1" d="M12,0C5.4,0,0,5.4,0,12c0,5.2,3.3,9.7,8.2,11.4C8.8,23.5,9,23.1,9,22.8s0-1,0-2c-3.3,0.7-4-1.6-4-1.6
		c-0.2-0.8-0.7-1.4-1.4-1.8c-1.1-0.7,0.1-0.7,0.1-0.7c0.8,0.1,1.4,0.6,1.8,1.2c0.7,1.2,2.2,1.7,3.5,1c0,0,0,0,0,0
		c0.1-0.6,0.3-1.2,0.8-1.6C7.2,17,4.3,16,4.3,11.4c0-1.2,0.4-2.3,1.2-3.2C5.2,7.1,5.2,6,5.7,5c0,0,1-0.3,3.3,1.2c2-0.5,4-0.5,6,0
		C17.3,4.7,18.3,5,18.3,5c0.4,1,0.5,2.1,0.1,3.2c0.8,0.9,1.2,2,1.2,3.2c0,4.6-2.8,5.6-5.5,5.9c0.6,0.6,0.9,1.4,0.9,2.2
		c0,1.6,0,2.9,0,3.3s0.2,0.7,0.8,0.6c6.3-2.1,9.7-8.9,7.5-15.2C21.7,3.3,17.1,0,12,0"/>
</g>
</svg>
