<?xml version="1.0" encoding="utf-8"?>
<!-- Generator: Adobe Illustrator 22.1.0, SVG Export Plug-In . SVG Version: 6.00 Build 0)  -->
<svg version="1.1" id="Layer_1" xmlns="http://www.w3.org/2000/svg" xmlns:xlink="http://www.w3.org/1999/xlink" x="0px" y="0px"
	 viewBox="0 0 24 24" style="enable-background:new 0 0 24 24;" xml:space="preserve">
<style type="text/css">
	.st0{fill:#F5F5F5;stroke:#000000;stroke-miterlimit:10;}
	.st1{fill:#2EC866;}
</style>
<title>hackerrank_active</title>
<g id="Layer_2_1_">
	<rect x="6.7" y="4" class="st0" width="12.4" height="15.9"/>
</g>
<g id="Layer_1_1_">
	<path class="st1" d="M12-0.1c1.3,0,9.7,4.9,10.4,6s0.6,10.9,0,12c-0.6,1.1-9.1,6-10.4,6S2.2,19,1.6,18C1,16.8,1,7.1,1.6,5.9
		S10.7-0.1,12-0.1z M14.3,6.8c-0.1,0-0.3,0.1-0.3,0.2l0,0v3.9h-4v-4h0.7c0.1,0,0.3-0.1,0.3-0.3l0,0c0-0.1,0-0.2-0.1-0.2L9.2,4.8
		C9.1,4.8,9.1,4.8,9,4.8c-0.1,0-0.2,0-0.2,0.1L7.1,6.3C7,6.4,7,6.5,7,6.6s0.1,0.3,0.3,0.3H8v10c0,0.1,0.1,0.3,0.2,0.3l0,0h1.4
		c0.1,0,0.3-0.1,0.3-0.3l0,0v-4h4V17h-0.7c-0.1,0-0.3,0.1-0.3,0.3l0,0c0,0.1,0,0.2,0.1,0.2l1.6,1.5c0.1,0.1,0.1,0.1,0.2,0.1
		c0.1,0,0.2,0,0.2-0.1l1.7-1.5c0.1,0,0.1-0.1,0.1-0.2c0-0.1-0.1-0.3-0.3-0.3h-0.7v-10c0-0.1-0.1-0.3-0.2-0.3l0,0H14.3z"/>
</g>
</svg>
