<?xml version="1.0" encoding="utf-8"?>
<!-- Generator: Adobe Illustrator 22.1.0, SVG Export Plug-In . SVG Version: 6.00 Build 0)  -->
<svg version="1.1" id="Layer_1" xmlns="http://www.w3.org/2000/svg" xmlns:xlink="http://www.w3.org/1999/xlink" x="0px" y="0px"
	 viewBox="0 0 21.8 24" style="enable-background:new 0 0 21.8 24;" xml:space="preserve">
<style type="text/css">
	.st0{fill:#F5F5F5;stroke:#000000;stroke-miterlimit:10;}
	.st1{fill:#2EC866;}
</style>
<title>hackerrank_active</title>
<g id="Layer_2_1_">
	<rect x="4.5" y="4" class="st0" width="12.4" height="15.9"/>
</g>
<g id="Layer_1_1_">
	<path class="st1" d="M10.9,0c1.3,0,9.7,4.9,10.4,6s0.6,10.9,0,12s-9.1,6-10.4,6s-9.8-4.9-10.4-6s-0.6-10.9,0-12S9.6,0,10.9,0z
		 M13.2,6.8c-0.1,0-0.3,0.1-0.3,0.2c0,0,0,0,0,0v3.9h-4v-4h0.7c0.1,0,0.3-0.1,0.3-0.3v0c0-0.1,0-0.2-0.1-0.2L8.1,4.9
		C8,4.9,8,4.8,7.9,4.8c-0.1,0-0.2,0-0.2,0.1L6,6.4C5.9,6.5,5.9,6.6,5.9,6.7c0,0.1,0.1,0.3,0.3,0.3h0.7v10c0,0.1,0.1,0.3,0.2,0.3
		c0,0,0,0,0,0h1.4c0.1,0,0.3-0.1,0.3-0.3l0,0v-4h4v4.1h-0.7c-0.1,0-0.3,0.1-0.3,0.3l0,0c0,0.1,0,0.2,0.1,0.2l1.6,1.5
		c0.1,0.1,0.1,0.1,0.2,0.1c0.1,0,0.2,0,0.2-0.1l1.7-1.5c0.1,0,0.1-0.1,0.1-0.2c0-0.1-0.1-0.3-0.3-0.3h-0.7v-10
		c0-0.1-0.1-0.3-0.2-0.3c0,0,0,0,0,0L13.2,6.8z"/>
</g>
</svg>
