<?xml version="1.0" encoding="utf-8"?>
<!-- Generator: Adobe Illustrator 22.1.0, SVG Export Plug-In . SVG Version: 6.00 Build 0)  -->
<svg version="1.1" id="Layer_1" xmlns="http://www.w3.org/2000/svg" xmlns:xlink="http://www.w3.org/1999/xlink" x="0px" y="0px"
	 viewBox="0 0 24 24" style="enable-background:new 0 0 24 24;" xml:space="preserve">
<style type="text/css">
	.st0{fill:#F5F5F5;}
	.st1{fill:#0077B5;}
</style>
<title>linkedin_active</title>
<g id="Layer_2_1_">
	<rect x="2.8" y="2.6" class="st0" width="18.4" height="18.9"/>
</g>
<g id="Layer_1_1_">
	<path class="st1" d="M20.5,20.5h-3.6v-5.6c0-1.3,0-3-1.9-3s-2.1,1.4-2.1,2.9v5.7H9.4V9h3.4v1.6h0.1c0.7-1.2,2-1.9,3.4-1.9
		c3.6,0,4.3,2.4,4.3,5.5C20.5,14.2,20.5,20.4,20.5,20.5z M5.3,7.4c-1.1,0-2.1-0.9-2.1-2.1s0.9-2.1,2.1-2.1s2.1,0.9,2.1,2.1l0,0
		C7.4,6.5,6.5,7.4,5.3,7.4z M7.1,20.4H3.6V9h3.6V20.4z M22.2,0H1.8C0.8,0,0,0.8,0,1.7c0,0,0,0,0,0v20.5c0,1,0.8,1.7,1.8,1.7
		c0,0,0,0,0,0h20.4c1,0,1.8-0.8,1.8-1.7c0,0,0,0,0,0V1.7C24,0.8,23.2,0,22.2,0C22.2,0,22.2,0,22.2,0L22.2,0z"/>
</g>
</svg>
