<svg xmlns="http://www.w3.org/2000/svg" viewBox="0 0 285 262"><defs><style>.cls-1{fill:#f5f5f5;}.cls-2{fill:#212529;}.cls-3{fill:#3798d3;}.cls-4{fill:#586db4;}</style></defs><title>magni_logo</title><g id="Layer_2" data-name="Layer 2"><polygon class="cls-1" points="0 0 0 262 85.5 214 85.5 148 142.5 181 142.5 82.5 0 0"/><polygon class="cls-1" points="285 0 285 262 199.5 214 199.5 148 142.5 181 142.5 82.5 285 0"/></g><g id="Layer_1" data-name="Layer 1"><polygon class="cls-2" points="77.08 57.47 11.68 19.71 11.68 95.24 77.08 57.47"/><polygon class="cls-3" points="11.68 95.24 77.08 133 77.08 57.47 11.68 95.24"/><polygon class="cls-4" points="11.68 170.76 77.08 208.53 77.08 133 11.68 170.76"/><polygon class="cls-2" points="77.08 133 11.68 95.24 11.68 170.76 77.08 133"/><polygon class="cls-2" points="77.08 208.53 11.68 170.76 11.68 246.29 77.08 208.53"/><polygon class="cls-2" points="142.49 95.22 77.08 57.46 77.08 132.98 142.49 95.22"/><polygon class="cls-3" points="77.08 133.01 142.49 170.77 142.49 95.24 77.08 133.01"/><polygon class="cls-2" points="207.9 132.99 142.49 95.23 142.49 170.76 207.9 132.99"/><polygon class="cls-3" points="142.49 95.25 207.9 133.02 207.9 57.49 142.49 95.25"/><polygon class="cls-2" points="273.31 95.24 207.9 57.47 207.9 133 273.31 95.24"/><polygon class="cls-3" points="207.9 57.49 273.31 95.25 273.31 19.73 207.9 57.49"/><polygon class="cls-4" points="207.9 133.02 273.31 170.78 273.31 95.25 207.9 133.02"/><polygon class="cls-4" points="207.91 208.53 273.32 246.29 273.32 170.76 207.91 208.53"/><polygon class="cls-2" points="273.32 170.76 207.91 133 207.91 208.53 273.32 170.76"/></g></svg>