<svg width="600" height="600" xmlns="http://www.w3.org/2000/svg">
 <!-- Created with Method Draw - http://github.com/duopixel/Method-Draw/ -->

 <g>
  <title>background</title>
  <rect fill="#ffffff00" id="canvas_background" height="602" width="602" y="-1" x="-1"/>
  <g display="none" overflow="visible" y="0" x="0" height="100%" width="100%" id="canvasGrid">
   <rect fill="url(#gridpattern)" stroke-width="0" y="0" x="0" height="100%" width="100%"/>
  </g>
 </g>
 <g>
  <title>Layer 1</title>
  <defs>
   <style>.cls-1{fill:#0c4283;stroke:#f7901e;stroke-miterlimit:10;stroke-width:1.57px;}
			.cls-2{fill:#00205c;}
			.cls-3{fill:#fff;}
			.cls-4{fill:none;}
			.cls-5{fill:#c10230;}</style>
  </defs>
  <g stroke="null" id="svg_40">
   <path stroke="null" id="svg_35" d="m286.45263,359.09758c43.45875,6.19082 70.80497,9.42973 86.83551,24.59929a47.55864,47.55864 0 0 1 16.39953,34.02902l0,14.80058c188.1846,-100.11913 51.33053,-155.67253 -76.01182,-173.91701c-43.41775,-6.19082 -70.76397,-9.42973 -86.75351,-24.59929a47.31264,47.31264 0 0 1 -16.39953,-34.02902l0,-14.71858c-188.4306,100.03713 -51.53552,155.63154 75.92982,173.83501z" class="cls-4"/>
   <path stroke="null" id="svg_36" d="m373.28814,383.61488c-16.03054,-15.08757 -43.37676,-18.32647 -86.83551,-24.59929c-127.46534,-18.20348 -264.36042,-73.79788 -76.01182,-173.83501l0,-15.33356c-196.87635,75.64283 -416.91704,237.1782 179.12386,407.73331l0,-129.72028a941.456,941.456 0 0 1 -120.37255,37.47293a1055.55572,1055.55572 0 0 0 120.37255,-52.88848l0,-14.75958a47.55864,47.55864 0 0 0 -16.27653,-34.07002z" class="cls-5"/>
   <path stroke="null" id="svg_37" d="m210.44081,169.84701l0,15.41556a1053.0548,1053.0548 0 0 1 120.37255,-52.84748a930.05832,930.05832 0 0 0 -120.37255,37.43193z" class="cls-5"/>
   <path stroke="null" id="svg_38" d="m210.44081,39.96274l0,129.88427a930.05832,930.05832 0 0 1 120.37255,-37.43193a1053.0548,1053.0548 0 0 0 -120.37255,52.84748l0,14.80058a47.31264,47.31264 0 0 0 16.39953,34.02902c15.98954,15.08757 43.33576,18.32647 86.75351,24.59929c127.50634,18.24448 264.36042,73.79788 76.05282,173.83501l0,15.41556c196.75336,-75.88882 416.83504,-237.26019 -179.20586,-407.9793z" class="cls-2"/>
   <path stroke="null" id="svg_39" d="m269.19213,485.33296a941.456,941.456 0 0 0 120.37255,-37.47293l0,-15.41556a1055.55572,1055.55572 0 0 1 -120.37255,52.88848z" class="cls-2"/>
  </g>
 </g>
</svg>