<?xml version="1.0" encoding="utf-8"?>
<!-- Generator: Adobe Illustrator 22.1.0, SVG Export Plug-In . SVG Version: 6.00 Build 0)  -->
<svg version="1.1" id="Layer_1" xmlns="http://www.w3.org/2000/svg" xmlns:xlink="http://www.w3.org/1999/xlink" x="0px" y="0px"
	 viewBox="0 0 101.6 60" style="enable-background:new 0 0 101.6 60;" xml:space="preserve">
<style type="text/css">
	.st0{fill:#0085C8;}
	.st1{fill:#F8951D;}
</style>
<g id="Layer_2_1_">
	<path class="st0" d="M4.1,56.4l1.2,0.4C4.8,57.5,3.9,58,3,57.9c-0.7,0-1.4-0.2-1.9-0.7c-0.5-0.4-0.7-1.1-0.7-1.7
		c-0.1-1.4,1-2.5,2.3-2.5c0.1,0,0.1,0,0.2,0c0.5,0,1,0.1,1.4,0.4c0.4,0.2,0.7,0.6,0.8,1c0.2,0.4,0.2,0.9,0.2,1.3H1.8
		c0,0.4,0.1,0.7,0.4,0.9C2.5,56.9,2.7,57,3,57C3.4,57,3.8,56.7,4.1,56.4z M3.8,54.9c0-0.2-0.1-0.5-0.3-0.7C3.3,54.1,3.1,54,2.8,54
		c-0.5,0-0.9,0.3-1,0.9H3.8z"/>
	<path class="st0" d="M6.2,57.8v-1.1h1v-4.5h-1v-1.1h3.7v1.1h-1v4.5h2v-2.1h1.3v3.2H6.2z"/>
	<path class="st0" d="M16.7,56.4l1.2,0.4c-0.5,0.8-1.4,1.2-2.3,1.2c-0.7,0-1.4-0.2-1.9-0.7c-0.5-0.5-0.7-1.1-0.7-1.7
		c-0.1-1.4,1-2.5,2.3-2.5c0.1,0,0.1,0,0.2,0c0.5,0,1,0.1,1.4,0.4c0.4,0.2,0.7,0.6,0.8,1c0.2,0.4,0.3,0.9,0.3,1.4h-3.5
		c0,0.3,0.1,0.7,0.4,0.9c0.2,0.2,0.5,0.3,0.8,0.3C16.1,56.9,16.5,56.7,16.7,56.4z M16.4,54.9c0-0.2-0.1-0.5-0.3-0.7
		C16,54.1,15.7,54,15.4,54c-0.6,0-0.9,0.3-1,0.9H16.4z"/>
	<path class="st0" d="M24.2,56.7v1.1h-2.3v-0.4c-0.4,0.3-0.8,0.4-1.3,0.4c-0.4,0-0.9-0.1-1.2-0.4c-0.3-0.3-0.5-0.7-0.5-1.1
		c0-0.4,0.2-0.9,0.5-1.1c0.4-0.3,0.9-0.5,1.4-0.5c0.4,0,0.7,0.1,1.1,0.2v-0.3c0-0.2-0.1-0.4-0.3-0.6C21.5,54,21.2,54,21,54
		c-0.3,0-0.6,0.1-0.9,0.4L19,54.1c0.5-0.8,1.3-1.2,2.2-1.1c0.4,0,0.8,0,1.1,0.2c0.5,0.1,0.9,0.5,1,0.9c0.1,0.3,0.1,0.6,0.1,0.9v1.7
		L24.2,56.7z M21.9,56.1c-0.3-0.2-0.6-0.3-0.9-0.3c-0.2,0-0.3,0.1-0.5,0.2c-0.1,0.1-0.2,0.3-0.2,0.4c0,0.2,0.1,0.3,0.2,0.4
		c0.1,0.1,0.3,0.2,0.4,0.2c0.4,0,0.7-0.2,1-0.5L21.9,56.1z"/>
	<path class="st0" d="M28.1,56.7v1.1h-3.3v-1.1h0.9v-2.5h-0.8v-1.1h2.2v1.2c0.1-0.4,0.3-0.7,0.6-0.9c0.3-0.3,0.7-0.4,1.1-0.4H29v1.4
		c-0.3,0-0.6,0-0.9,0.1c-0.3,0.1-0.5,0.3-0.6,0.5c-0.2,0.3-0.2,0.7-0.2,1v0.6L28.1,56.7z"/>
	<path class="st0" d="M30.1,54.2v-1.1h2.2v0.4c0.4-0.3,0.9-0.5,1.4-0.5c0.9,0,1.4,0.6,1.4,1.8v1.9h0.7v1.1h-2.2V55
		c0-0.2,0-0.4-0.1-0.5c-0.1-0.1-0.2-0.2-0.3-0.1c-0.3,0-0.6,0.1-0.8,0.3v2.1h0.7v1.1h-2.9v-1.1h0.7v-2.5H30.1z"/>
	<path class="st0" d="M36.6,54.2v-1.1h2.2v3.6h0.7v1.1h-2.9v-1.1h0.7v-2.5H36.6z M37.3,51.8c0-0.2,0.1-0.4,0.2-0.6
		c0.3-0.3,0.8-0.3,1.2,0c0,0,0,0,0,0c0.2,0.2,0.2,0.4,0.2,0.6c0,0.2-0.1,0.4-0.2,0.6c-0.3,0.3-0.8,0.3-1.2,0c0,0,0,0,0,0
		C37.4,52.2,37.3,52,37.3,51.8z"/>
	<path class="st0" d="M40.3,54.2v-1.1h2.2v0.4c0.4-0.3,0.9-0.5,1.4-0.5c0.9,0,1.4,0.6,1.4,1.8v1.9h0.7v1.1h-2.2V55
		c0-0.2,0-0.4-0.1-0.5c-0.1-0.1-0.2-0.1-0.3-0.1c-0.3,0-0.6,0.1-0.8,0.3v2.1h0.7v1.1h-2.9v-1.1h0.7v-2.5H40.3z"/>
	<path class="st0" d="M52.5,53.1v1.1h-0.8v3.5c0,1.5-0.8,2.3-2.5,2.3c-0.7,0.1-1.5-0.1-2.1-0.5l0.7-1c0.3,0.2,0.7,0.3,1.1,0.3
		c0.3,0,0.6-0.1,0.8-0.3c0.3-0.3,0.4-0.6,0.3-1v-0.4c-0.4,0.4-0.9,0.6-1.4,0.7c-0.5,0-1.1-0.3-1.4-0.7c-0.4-0.5-0.6-1.1-0.6-1.7
		c0-0.6,0.2-1.3,0.6-1.8c0.4-0.4,0.9-0.7,1.4-0.7c0.5,0,1,0.2,1.3,0.7v-0.6L52.5,53.1z M50.2,55.5c0-0.3-0.1-0.6-0.3-0.9
		c-0.2-0.2-0.4-0.3-0.7-0.3c-0.3,0-0.5,0.1-0.7,0.3c-0.2,0.3-0.3,0.6-0.2,0.9c0,0.3,0.1,0.6,0.3,0.9c0.2,0.2,0.4,0.3,0.7,0.3
		c0.3,0,0.5-0.1,0.7-0.3C50.1,56.1,50.2,55.8,50.2,55.5z"/>
	<path class="st0" d="M56.1,57.8v-2.3h1.1c0,0.3,0.1,0.7,0.3,0.9c0.2,0.2,0.4,0.3,0.7,0.3c0.2,0,0.4-0.1,0.5-0.2
		c0.1-0.1,0.2-0.3,0.2-0.5c0-0.2-0.1-0.4-0.2-0.5c-0.2-0.2-0.5-0.4-0.8-0.5c-0.6-0.2-1.1-0.6-1.6-1c-0.3-0.3-0.4-0.7-0.4-1.2
		c0-0.5,0.2-1,0.5-1.4c0.4-0.3,0.8-0.5,1.3-0.5c0.5,0,1,0.2,1.2,0.6v-0.6h1.1v2h-1.1c0-0.3-0.1-0.5-0.3-0.7
		c-0.2-0.2-0.4-0.3-0.6-0.3c-0.2,0-0.3,0-0.5,0.2c-0.1,0.1-0.2,0.2-0.2,0.4c0,0.1,0.1,0.3,0.2,0.4c0.3,0.2,0.6,0.4,0.9,0.5
		c0.4,0.2,0.8,0.4,1.1,0.6c0.3,0.2,0.5,0.4,0.6,0.7c0.2,0.3,0.2,0.7,0.2,1c0.1,0.6-0.2,1.1-0.6,1.5c-0.4,0.3-0.9,0.5-1.4,0.5
		c-0.5,0-1.1-0.2-1.4-0.7v0.6L56.1,57.8z"/>
	<path class="st0" d="M64,57.9c-0.6,0-1.3-0.2-1.8-0.7c-1-1-1-2.6,0-3.6c1-0.9,2.5-0.9,3.5,0c0.9,1,0.9,2.6,0,3.6
		C65.3,57.7,64.7,57.9,64,57.9z M64,56.8c0.3,0,0.5-0.1,0.7-0.3c0.2-0.3,0.3-0.6,0.3-1c0-0.3-0.1-0.7-0.3-0.9
		c-0.2-0.2-0.4-0.4-0.7-0.3c-0.6,0-0.9,0.5-0.9,1.3c0,0.3,0.1,0.6,0.2,0.9C63.5,56.6,63.7,56.8,64,56.8z"/>
	<path class="st0" d="M67.5,57.8v-1.1h0.7v-4.6h-0.7v-1.1h2.2v5.7h0.7v1.1H67.5z"/>
	<path class="st0" d="M76.8,56.7v1.1h-2.3v-0.4c-0.4,0.3-0.9,0.5-1.4,0.5c-0.7,0.1-1.4-0.5-1.5-1.2c0-0.1,0-0.2,0-0.3v-2.2h-0.7
		v-1.1h2.2V56c0,0.2,0,0.3,0.1,0.5c0.1,0.1,0.2,0.1,0.4,0.1c0.3,0,0.6-0.1,0.8-0.3v-2.1h-0.7v-1.1h2.2v3.6L76.8,56.7z"/>
	<path class="st0" d="M77.5,54.2v-1.1h0.6v-0.7l1.5-1.1v1.8h0.9v1.1h-0.9v2c0,0.1,0,0.3,0.1,0.4c0,0.1,0.2,0.1,0.3,0.1
		c0.2,0,0.3,0,0.5-0.1v1c-0.4,0.2-0.7,0.2-1.1,0.2c-0.6,0.1-1.1-0.3-1.2-0.9c0-0.1,0-0.2,0-0.3v-2.4H77.5z"/>
	<path class="st0" d="M81.4,54.2v-1.1h2.2v3.6h0.7v1.1h-2.9v-1.1h0.7v-2.5H81.4z M82.1,51.8c0-0.2,0.1-0.4,0.2-0.6
		c0.3-0.3,0.8-0.3,1.2,0c0,0,0,0,0,0c0.2,0.2,0.2,0.4,0.2,0.6c0,0.4-0.4,0.8-0.8,0.8c-0.2,0-0.4-0.1-0.6-0.2
		C82.2,52.2,82.1,52,82.1,51.8z"/>
	<path class="st0" d="M87.6,57.9c-0.6,0-1.3-0.2-1.8-0.7c-0.9-1-0.9-2.6,0-3.6c1-0.9,2.5-0.9,3.5,0c0.9,1,0.9,2.6,0,3.6
		C88.9,57.7,88.3,57.9,87.6,57.9z M87.6,56.8c0.3,0,0.5-0.1,0.7-0.3c0.2-0.3,0.3-0.6,0.3-1c0-0.3-0.1-0.7-0.3-0.9
		c-0.2-0.2-0.4-0.4-0.7-0.3c-0.6,0-0.9,0.5-0.9,1.3c0,0.3,0.1,0.6,0.2,0.9C87.1,56.6,87.3,56.8,87.6,56.8z"/>
	<path class="st0" d="M91.1,54.2v-1.1h2.2v0.4c0.4-0.3,0.9-0.5,1.4-0.5c0.9,0,1.4,0.6,1.4,1.8v1.9h0.7v1.1h-2.2V55
		c0-0.2,0-0.4-0.1-0.5c-0.1-0.1-0.2-0.2-0.3-0.1c-0.3,0-0.6,0.1-0.8,0.3v2.1H94v1.1h-2.9v-1.1h0.7v-2.5H91.1z"/>
	<path class="st0" d="M97.7,57.8v-1.6h1.1c0,0.2,0.1,0.4,0.3,0.5c0.2,0.1,0.5,0.2,0.7,0.2c0.2,0,0.4,0,0.6-0.1
		c0.1-0.1,0.2-0.2,0.2-0.3c0-0.1-0.1-0.2-0.2-0.3c-0.2-0.1-0.5-0.2-0.7-0.2c-0.6-0.1-1.1-0.3-1.6-0.6c-0.3-0.2-0.5-0.6-0.5-1
		c0-0.4,0.2-0.8,0.5-1c0.4-0.3,0.8-0.4,1.3-0.4c0.4,0,0.8,0.1,1.2,0.2v-0.2h1.1v1.4h-1.1c-0.1-0.3-0.4-0.5-1-0.5
		c-0.4,0-0.7,0.1-0.7,0.4c0,0.1,0.1,0.2,0.1,0.2c0.2,0.1,0.5,0.1,0.7,0.2c0.4,0.1,0.9,0.2,1.3,0.3c0.6,0.2,1,0.7,1,1.3
		c0,0.4-0.2,0.8-0.5,1.1c-0.4,0.3-0.9,0.5-1.4,0.4c-0.4,0-0.8-0.1-1.2-0.3v0.2L97.7,57.8z"/>
	<path class="st1" d="M18.3,35.3h-7.1v12.6H7.7V35.3h-7v-2.7h17.6V35.3z"/>
	<path class="st1" d="M40.9,47.9h-3.6v-6.6H26.2v6.6h-3.5V32.6h3.5v5.9h11.1v-5.9h3.6V47.9z"/>
	<path class="st1" d="M79.6,47.9h-5.1l-6.2-5.8h-3.4v5.8h-3.5V32.6h13.1c2.3,0,3.4,1,3.4,3v3.6c0.2,1.2-0.6,2.4-1.8,2.8
		c-1.2,0.2-2.4,0.3-3.7,0.2L79.6,47.9z M74.6,38.3v-1.8c0-0.4-0.1-0.8-0.4-1c-0.4-0.2-0.8-0.2-1.1-0.2h-8v4.3h8c0.4,0,0.8,0,1.2-0.2
		C74.5,39,74.6,38.6,74.6,38.3L74.6,38.3z"/>
	<path class="st1" d="M101.8,44.2c0.1,1-0.2,2.1-0.8,2.9c-0.9,0.6-1.9,0.8-3,0.7h-9.4c-1.6,0-2.6-0.3-3.1-0.8
		c-0.6-1-0.9-2.1-0.7-3.2l3.2-0.7V45h10.8v-3.5h-9.6c-1.1,0.1-2.1-0.1-3-0.7c-0.6-0.8-0.9-1.9-0.8-2.9v-1.7c-0.1-1,0.2-2.1,0.8-2.9
		c0.9-0.6,1.9-0.9,3-0.7h8.7c1.1-0.1,2.1,0.1,3,0.8c0.6,0.8,0.9,1.9,0.8,2.9L98.5,37v-1.8h-10v3.3H98c1.1-0.1,2.1,0.2,3,0.7
		c0.7,0.8,1,1.8,0.8,2.9V44.2z"/>
	<path class="st1" d="M51,11.6c-6.7,0-12.2,5.4-12.2,12.1c0,0,0,0,0,0c0,3.2,1.3,6.3,3.6,8.6c2.3,2.4,3.2,7.3,3.4,9l7.7-12.8L51,29
		l3.9-6.8l-2.7,0.3l3.4-8l-7.2,12.4l2.4-0.7l-4,7l2.6-0.4l-2.8,6.8c-0.5-2.3-1.4-5.9-3.5-8c-2.1-2.1-3.2-4.9-3.3-7.9
		c0-6.1,5.1-11.1,11.2-11c6.1,0,11.1,5.1,11,11.2c0,2.8-1.1,5.6-3.1,7.6c-2.9,2.9-3.7,9-3.9,10.1c-1.2,0.7-2.6,1.1-4,1h-0.3
		c-1.2,0-2.4-0.2-3.5-0.7l-0.8,0.7c1.4,1.2,3.1,2,4.9,2.1c-1.6,0.8-4.6-0.1-4.6-0.1c1.1,1.1,2.6,1.8,4.2,1.9c-1.2,0.3-2.5,0.3-3.7,0
		c0.7,1.2,2,2,3.4,2.1c-0.6,0.5-2.7,0.3-2.7,0.3c0.9,0.4,1.8,0.6,2.8,0.6c1,0,2.1-0.4,2.8-1.1l-0.3-0.6c0,0-2.8,0.8-4.8-0.3
		c2.7,0.8,5.8-0.8,5.8-0.8l-0.3-0.8c-1.5,0.7-3.2,0.7-4.7,0.1c3.9,0.1,5.4-1.5,5.4-1.5c-0.1-0.5-0.1-0.3-0.1-0.7
		c-2.7,1.2-4.6,0.6-5.8-0.2c0.7,0.1,1.3,0.2,2,0.2h0.3c0.8,0,3.5-0.1,4.8-1.4l0.1-0.1v-0.2c0-0.1,0.7-6.8,3.6-9.7
		c4.7-4.8,4.5-12.5-0.3-17.2C57.1,12.8,54.1,11.6,51,11.6z"/>
	<path class="st1" d="M0.7,30.3H38c-0.1-0.2-0.2-0.4-0.3-0.6L0.7,30.3z"/>
	<path class="st1" d="M101.6,30.3l-37.3-0.6c-0.1,0.2-0.2,0.4-0.3,0.6H101.6z"/>
	<path class="st1" d="M38,6.4l4.5,5.5c0.1-0.1,0.2-0.2,0.3-0.2L38,6.4z"/>
	<path class="st1" d="M29.4,12.9l8.4,4.6L38,17L29.4,12.9z"/>
	<path class="st1" d="M36.4,23l-15.9-3.2L36.4,24c0-0.1,0-0.2,0-0.3C36.4,23.5,36.4,23.3,36.4,23z"/>
	<path class="st1" d="M65.6,24l15.8-4.2L65.6,23c0,0.2,0,0.5,0,0.7L65.6,24z"/>
	<path class="st1" d="M64,6.4l-4.8,5.2l0.3,0.2L64,6.4z"/>
	<path class="st1" d="M72.6,12.9l-8.7,4c0.1,0.2,0.2,0.3,0.2,0.5L72.6,12.9z"/>
	<path class="st1" d="M51.3,9.1L51,0l-0.3,9.1H51.3L51.3,9.1z"/>
</g>
</svg>
