<?xml version="1.0" encoding="utf-8"?>
<!-- Generator: Adobe Illustrator 22.1.0, SVG Export Plug-In . SVG Version: 6.00 Build 0)  -->
<svg version="1.1" xmlns="http://www.w3.org/2000/svg" xmlns:xlink="http://www.w3.org/1999/xlink" x="0px" y="0px"
	 viewBox="0 0 52 52" style="enable-background:new 0 0 52 52;" xml:space="preserve">
<style type="text/css">
	.st0{fill:#F8951D;}
	.st1{fill:#FFFFFF;}
</style>
<g id="Layer_2">
	<circle class="st0" cx="26" cy="26" r="26"/>
</g>
<g id="Layer_1">
	<g id="Layer_2_1_">
		<path class="st1" d="M26.3,12.9c-6.7,0-12.2,5.4-12.2,12.1c0,0,0,0,0,0c0,3.2,1.3,6.3,3.6,8.6c2.3,2.4,3.2,7.3,3.4,9l7.7-12.8
			l-2.5,0.5l3.9-6.8l-2.7,0.3l3.4-8l-7.2,12.4l2.4-0.7l-4,7l2.6-0.4l-2.8,6.8c-0.5-2.3-1.4-5.9-3.5-8c-2.1-2.1-3.2-4.9-3.3-7.9
			c0-6.1,5.1-11.1,11.2-11c6.1,0,11.1,5.1,11,11.2c0,2.8-1.1,5.6-3.1,7.6c-2.9,2.9-3.7,9-3.9,10.1c-1.2,0.7-2.6,1.1-4,1h-0.3
			c-1.2,0-2.4-0.2-3.5-0.7l-0.8,0.7c1.4,1.2,3.1,2,4.9,2.1c-1.6,0.8-4.6-0.1-4.6-0.1c1.1,1.1,2.6,1.8,4.2,1.9
			c-1.2,0.3-2.5,0.3-3.7,0c0.7,1.2,2,2,3.4,2.1c-0.6,0.5-2.7,0.3-2.7,0.3c0.9,0.4,1.8,0.6,2.8,0.6c1,0,2.1-0.4,2.8-1.1l-0.3-0.6
			c0,0-2.8,0.8-4.8-0.3c2.7,0.8,5.8-0.8,5.8-0.8l-0.3-0.8c-1.5,0.7-3.2,0.7-4.7,0.1c3.9,0.1,5.4-1.5,5.4-1.5
			c-0.1-0.5-0.1-0.3-0.1-0.7c-2.7,1.2-4.6,0.6-5.8-0.2c0.7,0.1,1.3,0.2,2,0.2h0.3c0.8,0,3.5-0.1,4.8-1.4l0.1-0.1v-0.2
			c0-0.1,0.7-6.8,3.6-9.7c4.7-4.8,4.5-12.5-0.3-17.2C32.4,14.1,29.4,12.9,26.3,12.9z"/>
		<path class="st1" d="M3.7,35.5l8.5-4.3c-0.1-0.2-0.2-0.4-0.4-0.5L3.7,35.5z"/>
		<path class="st1" d="M48,35l-8.6-3.7c-0.1,0.2-0.2,0.4-0.3,0.6L48,35z"/>
		<path class="st1" d="M13.3,7.7l4.5,5.5c0.1-0.1,0.2-0.2,0.3-0.2L13.3,7.7z"/>
		<path class="st1" d="M4.6,14.2l8.4,4.6l0.3-0.5L4.6,14.2z"/>
		<path class="st1" d="M39.3,7.7L34.5,13l0.3,0.2L39.3,7.7z"/>
		<path class="st1" d="M47.8,14.2l-8.7,4c0.1,0.2,0.2,0.3,0.2,0.5L47.8,14.2z"/>
		<path class="st1" d="M26.5,10.4l-0.3-9.1L26,10.4H26.5L26.5,10.4z"/>
		<path class="st1" d="M3.2,25.2l9.6-0.2l0-0.6L3.2,25.2z"/>
		<path class="st1" d="M48.8,25l-9.5-1.1c0,0.2,0,0.4,0,0.6L48.8,25z"/>
	</g>
</g>
</svg>
